<mxfile host="app.diagrams.net" modified="2024-04-03T05:53:33.981Z" agent="Mozilla/5.0 (Windows NT 10.0; Win64; x64) AppleWebKit/537.36 (KHTML, like Gecko) Chrome/123.0.0.0 Safari/537.36" etag="9tmBmsclWg3xJd-Zy65h" version="24.2.1" type="google">
  <diagram name="WF - To Be system" id="SP-2CfnQ4YZgg9OdDo67">
    <mxGraphModel grid="1" page="1" gridSize="10" guides="1" tooltips="1" connect="1" arrows="1" fold="1" pageScale="1" pageWidth="1100" pageHeight="850" math="0" shadow="0">
      <root>
        <mxCell id="0" />
        <mxCell id="1" parent="0" />
        <mxCell id="5HJImTVw7a-lIusNJ9sF-4" value="&lt;font style=&quot;font-size: 24px;&quot;&gt;&lt;b&gt;Quản lý&lt;/b&gt;&lt;/font&gt;" style="swimlane;html=1;startSize=70;fontStyle=0;collapsible=0;horizontal=0;swimlaneLine=1;swimlaneFillColor=#ffffff;strokeWidth=2;whiteSpace=wrap;fillColor=#C4DEFF;" vertex="1" parent="1">
          <mxGeometry x="-960" y="180" width="3200" height="660" as="geometry" />
        </mxCell>
        <mxCell id="RkXWmt04V3o-1gHCGNps-5" style="edgeStyle=orthogonalEdgeStyle;rounded=0;orthogonalLoop=1;jettySize=auto;html=1;" edge="1" parent="5HJImTVw7a-lIusNJ9sF-4" source="5HJImTVw7a-lIusNJ9sF-7" target="5HJImTVw7a-lIusNJ9sF-9">
          <mxGeometry relative="1" as="geometry" />
        </mxCell>
        <mxCell id="5HJImTVw7a-lIusNJ9sF-7" value="" style="points=[[0.145,0.145,0],[0.5,0,0],[0.855,0.145,0],[1,0.5,0],[0.855,0.855,0],[0.5,1,0],[0.145,0.855,0],[0,0.5,0]];shape=mxgraph.bpmn.event;html=1;verticalLabelPosition=bottom;labelBackgroundColor=#ffffff;verticalAlign=top;align=center;perimeter=ellipsePerimeter;outlineConnect=0;aspect=fixed;outline=standard;symbol=general;fillColor=#97D077;" vertex="1" parent="5HJImTVw7a-lIusNJ9sF-4">
          <mxGeometry x="107.5" y="170" width="85" height="85" as="geometry" />
        </mxCell>
        <mxCell id="5HJImTVw7a-lIusNJ9sF-9" value="&lt;font style=&quot;font-size: 18px;&quot;&gt;Nhập tên tài khoản, mật khẩu&lt;/font&gt;" style="points=[[0.25,0,0],[0.5,0,0],[0.75,0,0],[1,0.25,0],[1,0.5,0],[1,0.75,0],[0.75,1,0],[0.5,1,0],[0.25,1,0],[0,0.75,0],[0,0.5,0],[0,0.25,0]];shape=mxgraph.bpmn.task;whiteSpace=wrap;rectStyle=rounded;size=10;html=1;container=1;expand=0;collapsible=0;taskMarker=user;fillColor=#C4DEFF;" vertex="1" parent="5HJImTVw7a-lIusNJ9sF-4">
          <mxGeometry x="85" y="40" width="130" height="75" as="geometry" />
        </mxCell>
        <mxCell id="9yNW38I7Dc4mzI84md_r-1" value="&lt;font style=&quot;vertical-align: inherit;&quot;&gt;&lt;font style=&quot;vertical-align: inherit; font-size: 18px;&quot;&gt;Thay đổi mật khẩu&lt;/font&gt;&lt;/font&gt;" style="points=[[0.25,0,0],[0.5,0,0],[0.75,0,0],[1,0.25,0],[1,0.5,0],[1,0.75,0],[0.75,1,0],[0.5,1,0],[0.25,1,0],[0,0.75,0],[0,0.5,0],[0,0.25,0]];shape=mxgraph.bpmn.task;whiteSpace=wrap;rectStyle=rounded;size=10;html=1;container=1;expand=0;collapsible=0;taskMarker=user;fillColor=#C4DEFF;" vertex="1" parent="5HJImTVw7a-lIusNJ9sF-4">
          <mxGeometry x="580" y="50" width="90" height="55" as="geometry" />
        </mxCell>
        <mxCell id="9yNW38I7Dc4mzI84md_r-75" style="edgeStyle=orthogonalEdgeStyle;rounded=0;orthogonalLoop=1;jettySize=auto;html=1;exitX=0.5;exitY=1;exitDx=0;exitDy=0;exitPerimeter=0;" edge="1" parent="5HJImTVw7a-lIusNJ9sF-4" source="9yNW38I7Dc4mzI84md_r-2">
          <mxGeometry relative="1" as="geometry">
            <mxPoint x="650" y="290" as="targetPoint" />
            <Array as="points">
              <mxPoint x="735" y="290" />
            </Array>
          </mxGeometry>
        </mxCell>
        <mxCell id="9yNW38I7Dc4mzI84md_r-2" value="&lt;font style=&quot;vertical-align: inherit;&quot;&gt;&lt;font style=&quot;vertical-align: inherit; font-size: 18px;&quot;&gt;Đăng xuất&lt;/font&gt;&lt;/font&gt;" style="points=[[0.25,0,0],[0.5,0,0],[0.75,0,0],[1,0.25,0],[1,0.5,0],[1,0.75,0],[0.75,1,0],[0.5,1,0],[0.25,1,0],[0,0.75,0],[0,0.5,0],[0,0.25,0]];shape=mxgraph.bpmn.task;whiteSpace=wrap;rectStyle=rounded;size=10;html=1;container=1;expand=0;collapsible=0;taskMarker=user;fillColor=#C4DEFF;" vertex="1" parent="5HJImTVw7a-lIusNJ9sF-4">
          <mxGeometry x="690" y="50" width="90" height="55" as="geometry" />
        </mxCell>
        <mxCell id="9yNW38I7Dc4mzI84md_r-3" value="&lt;font style=&quot;vertical-align: inherit;&quot;&gt;&lt;font style=&quot;vertical-align: inherit; font-size: 18px;&quot;&gt;Xoá tài khoản&lt;/font&gt;&lt;/font&gt;" style="points=[[0.25,0,0],[0.5,0,0],[0.75,0,0],[1,0.25,0],[1,0.5,0],[1,0.75,0],[0.75,1,0],[0.5,1,0],[0.25,1,0],[0,0.75,0],[0,0.5,0],[0,0.25,0]];shape=mxgraph.bpmn.task;whiteSpace=wrap;rectStyle=rounded;size=10;html=1;container=1;expand=0;collapsible=0;taskMarker=user;fillColor=#C4DEFF;" vertex="1" parent="5HJImTVw7a-lIusNJ9sF-4">
          <mxGeometry x="470" y="50" width="90" height="55" as="geometry" />
        </mxCell>
        <mxCell id="RkXWmt04V3o-1gHCGNps-7" value="" style="points=[[0.25,0.25,0],[0.5,0,0],[0.75,0.25,0],[1,0.5,0],[0.75,0.75,0],[0.5,1,0],[0.25,0.75,0],[0,0.5,0]];shape=mxgraph.bpmn.gateway2;html=1;verticalLabelPosition=bottom;labelBackgroundColor=#ffffff;verticalAlign=top;align=center;perimeter=rhombusPerimeter;outlineConnect=0;outline=end;symbol=general;fillColor=#fad9d5;strokeColor=#ae4132;" vertex="1" parent="5HJImTVw7a-lIusNJ9sF-4">
          <mxGeometry x="600" y="265" width="50" height="50" as="geometry" />
        </mxCell>
        <mxCell id="RkXWmt04V3o-1gHCGNps-8" style="edgeStyle=orthogonalEdgeStyle;rounded=0;orthogonalLoop=1;jettySize=auto;html=1;entryX=0;entryY=0.5;entryDx=0;entryDy=0;entryPerimeter=0;" edge="1" parent="5HJImTVw7a-lIusNJ9sF-4" source="9yNW38I7Dc4mzI84md_r-3" target="RkXWmt04V3o-1gHCGNps-7">
          <mxGeometry relative="1" as="geometry">
            <Array as="points">
              <mxPoint x="510" y="290" />
            </Array>
          </mxGeometry>
        </mxCell>
        <mxCell id="RkXWmt04V3o-1gHCGNps-11" value="" style="points=[[0.25,0.25,0],[0.5,0,0],[0.75,0.25,0],[1,0.5,0],[0.75,0.75,0],[0.5,1,0],[0.25,0.75,0],[0,0.5,0]];shape=mxgraph.bpmn.gateway2;html=1;verticalLabelPosition=bottom;labelBackgroundColor=#ffffff;verticalAlign=top;align=center;perimeter=rhombusPerimeter;outlineConnect=0;outline=end;symbol=general;fillColor=#fad9d5;strokeColor=#ae4132;" vertex="1" parent="5HJImTVw7a-lIusNJ9sF-4">
          <mxGeometry x="2460" y="380" width="50" height="50" as="geometry" />
        </mxCell>
        <mxCell id="RkXWmt04V3o-1gHCGNps-12" style="edgeStyle=orthogonalEdgeStyle;rounded=0;orthogonalLoop=1;jettySize=auto;html=1;entryX=0;entryY=0.5;entryDx=0;entryDy=0;entryPerimeter=0;" edge="1" parent="5HJImTVw7a-lIusNJ9sF-4" source="RkXWmt04V3o-1gHCGNps-7">
          <mxGeometry relative="1" as="geometry">
            <Array as="points">
              <mxPoint x="615" y="405" />
            </Array>
          </mxGeometry>
        </mxCell>
        <mxCell id="RkXWmt04V3o-1gHCGNps-13" value="" style="points=[[0.145,0.145,0],[0.5,0,0],[0.855,0.145,0],[1,0.5,0],[0.855,0.855,0],[0.5,1,0],[0.145,0.855,0],[0,0.5,0]];shape=mxgraph.bpmn.event;html=1;verticalLabelPosition=bottom;labelBackgroundColor=#ffffff;verticalAlign=top;align=center;perimeter=ellipsePerimeter;outlineConnect=0;aspect=fixed;outline=end;symbol=terminate2;fillColor=#FF3333;" vertex="1" parent="5HJImTVw7a-lIusNJ9sF-4">
          <mxGeometry x="2440" y="500" width="90" height="90" as="geometry" />
        </mxCell>
        <mxCell id="9yNW38I7Dc4mzI84md_r-10" value="&lt;font style=&quot;vertical-align: inherit;&quot;&gt;&lt;font style=&quot;vertical-align: inherit; font-size: 18px;&quot;&gt;Tạo và thêm nhân viên&lt;/font&gt;&lt;/font&gt;" style="points=[[0.25,0,0],[0.5,0,0],[0.75,0,0],[1,0.25,0],[1,0.5,0],[1,0.75,0],[0.75,1,0],[0.5,1,0],[0.25,1,0],[0,0.75,0],[0,0.5,0],[0,0.25,0]];shape=mxgraph.bpmn.task;whiteSpace=wrap;rectStyle=rounded;size=10;html=1;container=1;expand=0;collapsible=0;taskMarker=user;fillColor=#C4DEFF;" vertex="1" parent="5HJImTVw7a-lIusNJ9sF-4">
          <mxGeometry x="880" y="50" width="90" height="55" as="geometry" />
        </mxCell>
        <mxCell id="9yNW38I7Dc4mzI84md_r-11" value="&lt;font style=&quot;vertical-align: inherit;&quot;&gt;&lt;font style=&quot;vertical-align: inherit; font-size: 18px;&quot;&gt;Chỉnh sữa thông tin&lt;/font&gt;&lt;/font&gt;" style="points=[[0.25,0,0],[0.5,0,0],[0.75,0,0],[1,0.25,0],[1,0.5,0],[1,0.75,0],[0.75,1,0],[0.5,1,0],[0.25,1,0],[0,0.75,0],[0,0.5,0],[0,0.25,0]];shape=mxgraph.bpmn.task;whiteSpace=wrap;rectStyle=rounded;size=10;html=1;container=1;expand=0;collapsible=0;taskMarker=user;fillColor=#C4DEFF;" vertex="1" parent="5HJImTVw7a-lIusNJ9sF-4">
          <mxGeometry x="1000" y="50" width="90" height="55" as="geometry" />
        </mxCell>
        <mxCell id="9yNW38I7Dc4mzI84md_r-12" value="&lt;font style=&quot;font-size: 18px;&quot;&gt;Xoá nhân viên&lt;/font&gt;" style="points=[[0.25,0,0],[0.5,0,0],[0.75,0,0],[1,0.25,0],[1,0.5,0],[1,0.75,0],[0.75,1,0],[0.5,1,0],[0.25,1,0],[0,0.75,0],[0,0.5,0],[0,0.25,0]];shape=mxgraph.bpmn.task;whiteSpace=wrap;rectStyle=rounded;size=10;html=1;container=1;expand=0;collapsible=0;taskMarker=user;fillColor=#C4DEFF;" vertex="1" parent="5HJImTVw7a-lIusNJ9sF-4">
          <mxGeometry x="1120" y="50" width="90" height="55" as="geometry" />
        </mxCell>
        <mxCell id="9yNW38I7Dc4mzI84md_r-21" value="&lt;font style=&quot;font-size: 18px;&quot;&gt;Tạo bảng phân ca&lt;/font&gt;" style="points=[[0.25,0,0],[0.5,0,0],[0.75,0,0],[1,0.25,0],[1,0.5,0],[1,0.75,0],[0.75,1,0],[0.5,1,0],[0.25,1,0],[0,0.75,0],[0,0.5,0],[0,0.25,0]];shape=mxgraph.bpmn.task;whiteSpace=wrap;rectStyle=rounded;size=10;html=1;container=1;expand=0;collapsible=0;taskMarker=user;fillColor=#C4DEFF;" vertex="1" parent="5HJImTVw7a-lIusNJ9sF-4">
          <mxGeometry x="1360" y="50" width="90" height="55" as="geometry" />
        </mxCell>
        <mxCell id="EQyYGxicYlngEizYewgm-8" value="" style="points=[[0.25,0.25,0],[0.5,0,0],[0.75,0.25,0],[1,0.5,0],[0.75,0.75,0],[0.5,1,0],[0.25,0.75,0],[0,0.5,0]];shape=mxgraph.bpmn.gateway2;html=1;verticalLabelPosition=bottom;labelBackgroundColor=#ffffff;verticalAlign=top;align=center;perimeter=rhombusPerimeter;outlineConnect=0;outline=end;symbol=general;fillColor=#fad9d5;strokeColor=#ae4132;" vertex="1" parent="5HJImTVw7a-lIusNJ9sF-4">
          <mxGeometry x="1020" y="265" width="50" height="50" as="geometry" />
        </mxCell>
        <mxCell id="nsVi4_g5yoVmGmrb79Rh-16" style="edgeStyle=orthogonalEdgeStyle;rounded=0;orthogonalLoop=1;jettySize=auto;html=1;" edge="1" parent="5HJImTVw7a-lIusNJ9sF-4" source="9yNW38I7Dc4mzI84md_r-23">
          <mxGeometry relative="1" as="geometry">
            <mxPoint x="1540" y="290" as="targetPoint" />
            <Array as="points">
              <mxPoint x="1630" y="290" />
            </Array>
          </mxGeometry>
        </mxCell>
        <mxCell id="9yNW38I7Dc4mzI84md_r-23" value="&lt;font style=&quot;font-size: 18px;&quot;&gt;Xoá bảng phân ca&lt;/font&gt;" style="points=[[0.25,0,0],[0.5,0,0],[0.75,0,0],[1,0.25,0],[1,0.5,0],[1,0.75,0],[0.75,1,0],[0.5,1,0],[0.25,1,0],[0,0.75,0],[0,0.5,0],[0,0.25,0]];shape=mxgraph.bpmn.task;whiteSpace=wrap;rectStyle=rounded;size=10;html=1;container=1;expand=0;collapsible=0;taskMarker=user;fillColor=#C4DEFF;" vertex="1" parent="5HJImTVw7a-lIusNJ9sF-4">
          <mxGeometry x="1590" y="50" width="90" height="55" as="geometry" />
        </mxCell>
        <mxCell id="9yNW38I7Dc4mzI84md_r-28" value="&lt;font style=&quot;font-size: 18px;&quot;&gt;Lưu thông tin&lt;/font&gt;" style="points=[[0.25,0,0],[0.5,0,0],[0.75,0,0],[1,0.25,0],[1,0.5,0],[1,0.75,0],[0.75,1,0],[0.5,1,0],[0.25,1,0],[0,0.75,0],[0,0.5,0],[0,0.25,0]];shape=mxgraph.bpmn.task;whiteSpace=wrap;rectStyle=rounded;size=10;html=1;container=1;expand=0;collapsible=0;taskMarker=user;fillColor=#C4DEFF;" vertex="1" parent="5HJImTVw7a-lIusNJ9sF-4">
          <mxGeometry x="1210" y="160" width="90" height="55" as="geometry" />
        </mxCell>
        <mxCell id="nsVi4_g5yoVmGmrb79Rh-15" style="edgeStyle=orthogonalEdgeStyle;rounded=0;orthogonalLoop=1;jettySize=auto;html=1;" edge="1" parent="5HJImTVw7a-lIusNJ9sF-4" source="9yNW38I7Dc4mzI84md_r-22" target="nsVi4_g5yoVmGmrb79Rh-12">
          <mxGeometry relative="1" as="geometry" />
        </mxCell>
        <mxCell id="9yNW38I7Dc4mzI84md_r-22" value="&lt;font style=&quot;font-size: 18px;&quot;&gt;Chỉnh sửa bảng phân ca&lt;/font&gt;" style="points=[[0.25,0,0],[0.5,0,0],[0.75,0,0],[1,0.25,0],[1,0.5,0],[1,0.75,0],[0.75,1,0],[0.5,1,0],[0.25,1,0],[0,0.75,0],[0,0.5,0],[0,0.25,0]];shape=mxgraph.bpmn.task;whiteSpace=wrap;rectStyle=rounded;size=10;html=1;container=1;expand=0;collapsible=0;taskMarker=user;fillColor=#C4DEFF;" vertex="1" parent="5HJImTVw7a-lIusNJ9sF-4">
          <mxGeometry x="1470" y="50" width="90" height="55" as="geometry" />
        </mxCell>
        <mxCell id="EQyYGxicYlngEizYewgm-12" style="edgeStyle=orthogonalEdgeStyle;rounded=0;orthogonalLoop=1;jettySize=auto;html=1;entryX=0.5;entryY=0;entryDx=0;entryDy=0;entryPerimeter=0;" edge="1" parent="5HJImTVw7a-lIusNJ9sF-4" source="9yNW38I7Dc4mzI84md_r-11" target="EQyYGxicYlngEizYewgm-8">
          <mxGeometry relative="1" as="geometry" />
        </mxCell>
        <mxCell id="nsVi4_g5yoVmGmrb79Rh-12" value="" style="points=[[0.25,0.25,0],[0.5,0,0],[0.75,0.25,0],[1,0.5,0],[0.75,0.75,0],[0.5,1,0],[0.25,0.75,0],[0,0.5,0]];shape=mxgraph.bpmn.gateway2;html=1;verticalLabelPosition=bottom;labelBackgroundColor=#ffffff;verticalAlign=top;align=center;perimeter=rhombusPerimeter;outlineConnect=0;outline=end;symbol=general;fillColor=#fad9d5;strokeColor=#ae4132;" vertex="1" parent="5HJImTVw7a-lIusNJ9sF-4">
          <mxGeometry x="1490" y="265" width="50" height="50" as="geometry" />
        </mxCell>
        <mxCell id="nsVi4_g5yoVmGmrb79Rh-13" style="edgeStyle=orthogonalEdgeStyle;rounded=0;orthogonalLoop=1;jettySize=auto;html=1;entryX=0;entryY=0.5;entryDx=0;entryDy=0;entryPerimeter=0;" edge="1" parent="5HJImTVw7a-lIusNJ9sF-4" source="9yNW38I7Dc4mzI84md_r-21" target="nsVi4_g5yoVmGmrb79Rh-12">
          <mxGeometry relative="1" as="geometry">
            <Array as="points">
              <mxPoint x="1400" y="290" />
            </Array>
          </mxGeometry>
        </mxCell>
        <mxCell id="nsVi4_g5yoVmGmrb79Rh-18" style="edgeStyle=orthogonalEdgeStyle;rounded=0;orthogonalLoop=1;jettySize=auto;html=1;entryX=1;entryY=0.5;entryDx=0;entryDy=0;entryPerimeter=0;exitX=0.5;exitY=1;exitDx=0;exitDy=0;exitPerimeter=0;" edge="1" parent="5HJImTVw7a-lIusNJ9sF-4" source="9yNW38I7Dc4mzI84md_r-12" target="EQyYGxicYlngEizYewgm-8">
          <mxGeometry relative="1" as="geometry">
            <Array as="points">
              <mxPoint x="1165" y="290" />
            </Array>
          </mxGeometry>
        </mxCell>
        <mxCell id="nsVi4_g5yoVmGmrb79Rh-19" style="edgeStyle=orthogonalEdgeStyle;rounded=0;orthogonalLoop=1;jettySize=auto;html=1;entryX=0;entryY=0.5;entryDx=0;entryDy=0;entryPerimeter=0;" edge="1" parent="5HJImTVw7a-lIusNJ9sF-4" source="9yNW38I7Dc4mzI84md_r-10" target="EQyYGxicYlngEizYewgm-8">
          <mxGeometry relative="1" as="geometry">
            <Array as="points">
              <mxPoint x="925" y="290" />
            </Array>
          </mxGeometry>
        </mxCell>
        <mxCell id="nsVi4_g5yoVmGmrb79Rh-20" value="&lt;font style=&quot;font-size: 18px;&quot;&gt;Lưu thông tin&amp;nbsp;&lt;/font&gt;" style="points=[[0.25,0,0],[0.5,0,0],[0.75,0,0],[1,0.25,0],[1,0.5,0],[1,0.75,0],[0.75,1,0],[0.5,1,0],[0.25,1,0],[0,0.75,0],[0,0.5,0],[0,0.25,0]];shape=mxgraph.bpmn.task;whiteSpace=wrap;rectStyle=rounded;size=10;html=1;container=1;expand=0;collapsible=0;taskMarker=user;fillColor=#C4DEFF;" vertex="1" parent="5HJImTVw7a-lIusNJ9sF-4">
          <mxGeometry x="1690" y="160" width="90" height="55" as="geometry" />
        </mxCell>
        <mxCell id="nsVi4_g5yoVmGmrb79Rh-21" style="edgeStyle=orthogonalEdgeStyle;rounded=0;orthogonalLoop=1;jettySize=auto;html=1;entryX=0.5;entryY=1;entryDx=0;entryDy=0;entryPerimeter=0;" edge="1" parent="5HJImTVw7a-lIusNJ9sF-4" source="nsVi4_g5yoVmGmrb79Rh-12" target="nsVi4_g5yoVmGmrb79Rh-20">
          <mxGeometry relative="1" as="geometry">
            <Array as="points">
              <mxPoint x="1515" y="330" />
              <mxPoint x="1735" y="330" />
            </Array>
          </mxGeometry>
        </mxCell>
        <mxCell id="9yNW38I7Dc4mzI84md_r-37" value="&lt;font style=&quot;font-size: 18px;&quot;&gt;Kiểm tra lại danh sách chấm công&amp;nbsp;&lt;/font&gt;" style="points=[[0.25,0,0],[0.5,0,0],[0.75,0,0],[1,0.25,0],[1,0.5,0],[1,0.75,0],[0.75,1,0],[0.5,1,0],[0.25,1,0],[0,0.75,0],[0,0.5,0],[0,0.25,0]];shape=mxgraph.bpmn.task;whiteSpace=wrap;rectStyle=rounded;size=10;html=1;container=1;expand=0;collapsible=0;taskMarker=user;fillColor=#C4DEFF;" vertex="1" parent="5HJImTVw7a-lIusNJ9sF-4">
          <mxGeometry x="1970" y="70" width="110" height="65" as="geometry" />
        </mxCell>
        <mxCell id="9yNW38I7Dc4mzI84md_r-48" value="&lt;font style=&quot;font-size: 18px;&quot;&gt;Chỉnh sửa bảng chấm công&lt;/font&gt;" style="points=[[0.25,0,0],[0.5,0,0],[0.75,0,0],[1,0.25,0],[1,0.5,0],[1,0.75,0],[0.75,1,0],[0.5,1,0],[0.25,1,0],[0,0.75,0],[0,0.5,0],[0,0.25,0]];shape=mxgraph.bpmn.task;whiteSpace=wrap;rectStyle=rounded;size=10;html=1;container=1;expand=0;collapsible=0;taskMarker=user;fillColor=#C4DEFF;" vertex="1" parent="5HJImTVw7a-lIusNJ9sF-4">
          <mxGeometry x="2190" y="160" width="100" height="55" as="geometry" />
        </mxCell>
        <mxCell id="9yNW38I7Dc4mzI84md_r-52" value="" style="points=[[0.25,0.25,0],[0.5,0,0],[0.75,0.25,0],[1,0.5,0],[0.75,0.75,0],[0.5,1,0],[0.25,0.75,0],[0,0.5,0]];shape=mxgraph.bpmn.gateway2;html=1;verticalLabelPosition=bottom;labelBackgroundColor=#ffffff;verticalAlign=top;align=center;perimeter=rhombusPerimeter;outlineConnect=0;outline=none;symbol=none;gwType=exclusive;fillColor=#CDA2BE;" vertex="1" parent="5HJImTVw7a-lIusNJ9sF-4">
          <mxGeometry x="2110" y="85" width="40" height="45" as="geometry" />
        </mxCell>
        <mxCell id="9yNW38I7Dc4mzI84md_r-53" style="edgeStyle=orthogonalEdgeStyle;rounded=0;orthogonalLoop=1;jettySize=auto;html=1;exitX=1;exitY=0.5;exitDx=0;exitDy=0;exitPerimeter=0;entryX=0;entryY=0.5;entryDx=0;entryDy=0;entryPerimeter=0;" edge="1" parent="5HJImTVw7a-lIusNJ9sF-4" source="9yNW38I7Dc4mzI84md_r-37" target="9yNW38I7Dc4mzI84md_r-52">
          <mxGeometry relative="1" as="geometry" />
        </mxCell>
        <mxCell id="9yNW38I7Dc4mzI84md_r-55" style="edgeStyle=orthogonalEdgeStyle;rounded=0;orthogonalLoop=1;jettySize=auto;html=1;exitX=0.5;exitY=1;exitDx=0;exitDy=0;exitPerimeter=0;entryX=0;entryY=0.5;entryDx=0;entryDy=0;entryPerimeter=0;" edge="1" parent="5HJImTVw7a-lIusNJ9sF-4" source="9yNW38I7Dc4mzI84md_r-52" target="9yNW38I7Dc4mzI84md_r-48">
          <mxGeometry relative="1" as="geometry" />
        </mxCell>
        <mxCell id="9yNW38I7Dc4mzI84md_r-62" value="sai" style="edgeLabel;html=1;align=center;verticalAlign=middle;resizable=0;points=[];" connectable="0" vertex="1" parent="9yNW38I7Dc4mzI84md_r-55">
          <mxGeometry x="0.3629" y="-1" relative="1" as="geometry">
            <mxPoint x="-1" as="offset" />
          </mxGeometry>
        </mxCell>
        <mxCell id="nsVi4_g5yoVmGmrb79Rh-55" value="Sai&amp;nbsp;" style="edgeLabel;html=1;align=center;verticalAlign=middle;resizable=0;points=[];" vertex="1" connectable="0" parent="9yNW38I7Dc4mzI84md_r-55">
          <mxGeometry x="0.3083" y="1" relative="1" as="geometry">
            <mxPoint as="offset" />
          </mxGeometry>
        </mxCell>
        <mxCell id="9yNW38I7Dc4mzI84md_r-56" value="&lt;font style=&quot;font-size: 18px;&quot;&gt;Lưu thông tin&amp;nbsp;&lt;/font&gt;" style="points=[[0.25,0,0],[0.5,0,0],[0.75,0,0],[1,0.25,0],[1,0.5,0],[1,0.75,0],[0.75,1,0],[0.5,1,0],[0.25,1,0],[0,0.75,0],[0,0.5,0],[0,0.25,0]];shape=mxgraph.bpmn.task;whiteSpace=wrap;rectStyle=rounded;size=10;html=1;container=1;expand=0;collapsible=0;taskMarker=user;fillColor=#C4DEFF;" vertex="1" parent="5HJImTVw7a-lIusNJ9sF-4">
          <mxGeometry x="2320" y="160" width="90" height="55" as="geometry" />
        </mxCell>
        <mxCell id="9yNW38I7Dc4mzI84md_r-57" style="edgeStyle=orthogonalEdgeStyle;rounded=0;orthogonalLoop=1;jettySize=auto;html=1;exitX=1;exitY=0.5;exitDx=0;exitDy=0;exitPerimeter=0;entryX=0;entryY=0.5;entryDx=0;entryDy=0;entryPerimeter=0;" edge="1" parent="5HJImTVw7a-lIusNJ9sF-4" source="9yNW38I7Dc4mzI84md_r-48" target="9yNW38I7Dc4mzI84md_r-56">
          <mxGeometry relative="1" as="geometry" />
        </mxCell>
        <mxCell id="nsVi4_g5yoVmGmrb79Rh-41" value="&lt;font style=&quot;font-size: 18px;&quot;&gt;Kiểm tra&lt;/font&gt;" style="points=[[0.25,0,0],[0.5,0,0],[0.75,0,0],[1,0.25,0],[1,0.5,0],[1,0.75,0],[0.75,1,0],[0.5,1,0],[0.25,1,0],[0,0.75,0],[0,0.5,0],[0,0.25,0]];shape=mxgraph.bpmn.task;whiteSpace=wrap;rectStyle=rounded;size=10;html=1;container=1;expand=0;collapsible=0;taskMarker=user;fillColor=#C4DEFF;" vertex="1" parent="5HJImTVw7a-lIusNJ9sF-4">
          <mxGeometry x="2520" y="100" width="90" height="55" as="geometry" />
        </mxCell>
        <mxCell id="9yNW38I7Dc4mzI84md_r-70" style="edgeStyle=orthogonalEdgeStyle;rounded=0;orthogonalLoop=1;jettySize=auto;html=1;exitX=0.5;exitY=1;exitDx=0;exitDy=0;exitPerimeter=0;entryX=0;entryY=0.5;entryDx=0;entryDy=0;entryPerimeter=0;" edge="1" parent="5HJImTVw7a-lIusNJ9sF-4" source="RkXWmt04V3o-1gHCGNps-7" target="RkXWmt04V3o-1gHCGNps-11">
          <mxGeometry relative="1" as="geometry" />
        </mxCell>
        <mxCell id="9yNW38I7Dc4mzI84md_r-73" style="edgeStyle=orthogonalEdgeStyle;rounded=0;orthogonalLoop=1;jettySize=auto;html=1;exitX=0.5;exitY=1;exitDx=0;exitDy=0;exitPerimeter=0;" edge="1" parent="5HJImTVw7a-lIusNJ9sF-4" source="9yNW38I7Dc4mzI84md_r-71" target="RkXWmt04V3o-1gHCGNps-7">
          <mxGeometry relative="1" as="geometry" />
        </mxCell>
        <mxCell id="9yNW38I7Dc4mzI84md_r-71" value="&lt;font style=&quot;font-size: 18px;&quot;&gt;Lưu thông tin&lt;/font&gt;" style="points=[[0.25,0,0],[0.5,0,0],[0.75,0,0],[1,0.25,0],[1,0.5,0],[1,0.75,0],[0.75,1,0],[0.5,1,0],[0.25,1,0],[0,0.75,0],[0,0.5,0],[0,0.25,0]];shape=mxgraph.bpmn.task;whiteSpace=wrap;rectStyle=rounded;size=10;html=1;container=1;expand=0;collapsible=0;taskMarker=user;fillColor=#C4DEFF;" vertex="1" parent="5HJImTVw7a-lIusNJ9sF-4">
          <mxGeometry x="580" y="155" width="90" height="55" as="geometry" />
        </mxCell>
        <mxCell id="9yNW38I7Dc4mzI84md_r-72" style="edgeStyle=orthogonalEdgeStyle;rounded=0;orthogonalLoop=1;jettySize=auto;html=1;exitX=0.5;exitY=1;exitDx=0;exitDy=0;exitPerimeter=0;entryX=0.5;entryY=0;entryDx=0;entryDy=0;entryPerimeter=0;" edge="1" parent="5HJImTVw7a-lIusNJ9sF-4" source="9yNW38I7Dc4mzI84md_r-1" target="9yNW38I7Dc4mzI84md_r-71">
          <mxGeometry relative="1" as="geometry" />
        </mxCell>
        <mxCell id="9yNW38I7Dc4mzI84md_r-76" style="edgeStyle=orthogonalEdgeStyle;rounded=0;orthogonalLoop=1;jettySize=auto;html=1;exitX=0.5;exitY=1;exitDx=0;exitDy=0;exitPerimeter=0;entryX=0.5;entryY=1;entryDx=0;entryDy=0;entryPerimeter=0;" edge="1" parent="5HJImTVw7a-lIusNJ9sF-4" source="EQyYGxicYlngEizYewgm-8" target="9yNW38I7Dc4mzI84md_r-28">
          <mxGeometry relative="1" as="geometry" />
        </mxCell>
        <mxCell id="9yNW38I7Dc4mzI84md_r-80" style="edgeStyle=orthogonalEdgeStyle;rounded=0;orthogonalLoop=1;jettySize=auto;html=1;exitX=0.5;exitY=1;exitDx=0;exitDy=0;exitPerimeter=0;entryX=0.5;entryY=0;entryDx=0;entryDy=0;entryPerimeter=0;" edge="1" parent="5HJImTVw7a-lIusNJ9sF-4" source="RkXWmt04V3o-1gHCGNps-11" target="RkXWmt04V3o-1gHCGNps-13">
          <mxGeometry relative="1" as="geometry" />
        </mxCell>
        <mxCell id="5HJImTVw7a-lIusNJ9sF-8" value="&lt;font style=&quot;font-size: 24px;&quot;&gt;&lt;b&gt;Hệ thống&amp;nbsp;&lt;/b&gt;&lt;/font&gt;" style="swimlane;html=1;startSize=70;fontStyle=0;collapsible=0;horizontal=0;swimlaneLine=1;swimlaneFillColor=#ffffff;strokeWidth=2;whiteSpace=wrap;fillColor=#C4DEFF;" vertex="1" parent="1">
          <mxGeometry x="-960" y="-610" width="3200" height="790" as="geometry" />
        </mxCell>
        <mxCell id="5HJImTVw7a-lIusNJ9sF-11" value="&lt;font style=&quot;font-size: 18px;&quot;&gt;Kiểm tra mật khẩu&amp;nbsp;&lt;/font&gt;" style="points=[[0.25,0,0],[0.5,0,0],[0.75,0,0],[1,0.25,0],[1,0.5,0],[1,0.75,0],[0.75,1,0],[0.5,1,0],[0.25,1,0],[0,0.75,0],[0,0.5,0],[0,0.25,0]];shape=mxgraph.bpmn.task;whiteSpace=wrap;rectStyle=rounded;size=10;html=1;container=1;expand=0;collapsible=0;taskMarker=service;fillColor=#C4DEFF;" vertex="1" parent="5HJImTVw7a-lIusNJ9sF-8">
          <mxGeometry x="90" y="220" width="120" height="65" as="geometry" />
        </mxCell>
        <mxCell id="5HJImTVw7a-lIusNJ9sF-15" value="" style="points=[[0.25,0.25,0],[0.5,0,0],[0.75,0.25,0],[1,0.5,0],[0.75,0.75,0],[0.5,1,0],[0.25,0.75,0],[0,0.5,0]];shape=mxgraph.bpmn.gateway2;html=1;verticalLabelPosition=bottom;labelBackgroundColor=#ffffff;verticalAlign=top;align=center;perimeter=rhombusPerimeter;outlineConnect=0;outline=none;symbol=none;gwType=exclusive;fillColor=#CDA2BE;" vertex="1" parent="5HJImTVw7a-lIusNJ9sF-8">
          <mxGeometry x="230" y="170" width="40" height="45" as="geometry" />
        </mxCell>
        <mxCell id="5HJImTVw7a-lIusNJ9sF-18" value="&lt;font style=&quot;font-size: 18px;&quot;&gt;Hiển thị giao diện&amp;nbsp;&lt;/font&gt;" style="points=[[0.25,0,0],[0.5,0,0],[0.75,0,0],[1,0.25,0],[1,0.5,0],[1,0.75,0],[0.75,1,0],[0.5,1,0],[0.25,1,0],[0,0.75,0],[0,0.5,0],[0,0.25,0]];shape=mxgraph.bpmn.task;whiteSpace=wrap;rectStyle=rounded;size=10;html=1;container=1;expand=0;collapsible=0;taskMarker=service;fillColor=#C4DEFF;" vertex="1" parent="5HJImTVw7a-lIusNJ9sF-8">
          <mxGeometry x="340" y="110" width="100" height="70" as="geometry" />
        </mxCell>
        <mxCell id="5HJImTVw7a-lIusNJ9sF-25" style="edgeStyle=orthogonalEdgeStyle;rounded=0;orthogonalLoop=1;jettySize=auto;html=1;exitX=0.5;exitY=0;exitDx=0;exitDy=0;exitPerimeter=0;entryX=0;entryY=0.5;entryDx=0;entryDy=0;entryPerimeter=0;" edge="1" parent="5HJImTVw7a-lIusNJ9sF-8" source="5HJImTVw7a-lIusNJ9sF-15" target="5HJImTVw7a-lIusNJ9sF-18">
          <mxGeometry relative="1" as="geometry" />
        </mxCell>
        <mxCell id="5HJImTVw7a-lIusNJ9sF-27" value="Đúng&amp;nbsp;" style="text;html=1;align=center;verticalAlign=middle;resizable=0;points=[];autosize=1;strokeColor=none;fillColor=none;" vertex="1" parent="5HJImTVw7a-lIusNJ9sF-8">
          <mxGeometry x="260" y="113.75" width="60" height="30" as="geometry" />
        </mxCell>
        <mxCell id="5HJImTVw7a-lIusNJ9sF-28" value="Sai" style="text;html=1;align=center;verticalAlign=middle;resizable=0;points=[];autosize=1;strokeColor=none;fillColor=none;" vertex="1" parent="5HJImTVw7a-lIusNJ9sF-8">
          <mxGeometry x="260" y="215" width="40" height="30" as="geometry" />
        </mxCell>
        <mxCell id="5HJImTVw7a-lIusNJ9sF-39" value="" style="points=[[0.25,0.25,0],[0.5,0,0],[0.75,0.25,0],[1,0.5,0],[0.75,0.75,0],[0.5,1,0],[0.25,0.75,0],[0,0.5,0]];shape=mxgraph.bpmn.gateway2;html=1;verticalLabelPosition=bottom;labelBackgroundColor=#ffffff;verticalAlign=top;align=center;perimeter=rhombusPerimeter;outlineConnect=0;outline=end;symbol=general;" vertex="1" parent="5HJImTVw7a-lIusNJ9sF-8">
          <mxGeometry x="1490" y="70" width="50" height="50" as="geometry" />
        </mxCell>
        <mxCell id="3dLg9AX5MmZRIqHySzpy-15" value="&lt;font style=&quot;vertical-align: inherit;&quot;&gt;&lt;font style=&quot;vertical-align: inherit; font-size: 18px;&quot;&gt;Quản lý lương&lt;/font&gt;&lt;/font&gt;" style="points=[[0.25,0,0],[0.5,0,0],[0.75,0,0],[1,0.25,0],[1,0.5,0],[1,0.75,0],[0.75,1,0],[0.5,1,0],[0.25,1,0],[0,0.75,0],[0,0.5,0],[0,0.25,0]];shape=mxgraph.bpmn.task;whiteSpace=wrap;rectStyle=rounded;size=10;html=1;container=1;expand=0;collapsible=0;taskMarker=service;fillColor=#C4DEFF;" vertex="1" parent="5HJImTVw7a-lIusNJ9sF-8">
          <mxGeometry x="2510" y="170" width="110" height="70" as="geometry" />
        </mxCell>
        <mxCell id="yn1PmDAww0J93RW6hKu--1" value="&lt;font style=&quot;font-size: 18px;&quot;&gt;Thông báo lỗi&amp;nbsp;&lt;/font&gt;" style="points=[[0.25,0,0],[0.5,0,0],[0.75,0,0],[1,0.25,0],[1,0.5,0],[1,0.75,0],[0.75,1,0],[0.5,1,0],[0.25,1,0],[0,0.75,0],[0,0.5,0],[0,0.25,0]];shape=mxgraph.bpmn.task;whiteSpace=wrap;rectStyle=rounded;size=10;html=1;container=1;expand=0;collapsible=0;taskMarker=service;fillColor=#C4DEFF;" vertex="1" parent="5HJImTVw7a-lIusNJ9sF-8">
          <mxGeometry x="340" y="213" width="110" height="67" as="geometry" />
        </mxCell>
        <mxCell id="5HJImTVw7a-lIusNJ9sF-53" value="&lt;font style=&quot;vertical-align: inherit;&quot;&gt;&lt;font style=&quot;vertical-align: inherit; font-size: 18px;&quot;&gt;Quản lý tài khoản&lt;/font&gt;&lt;/font&gt;" style="points=[[0.25,0,0],[0.5,0,0],[0.75,0,0],[1,0.25,0],[1,0.5,0],[1,0.75,0],[0.75,1,0],[0.5,1,0],[0.25,1,0],[0,0.75,0],[0,0.5,0],[0,0.25,0]];shape=mxgraph.bpmn.task;whiteSpace=wrap;rectStyle=rounded;size=10;html=1;container=1;expand=0;collapsible=0;taskMarker=service;fillColor=#C4DEFF;" vertex="1" parent="5HJImTVw7a-lIusNJ9sF-8">
          <mxGeometry x="570" y="180" width="110" height="60" as="geometry" />
        </mxCell>
        <mxCell id="5HJImTVw7a-lIusNJ9sF-54" value="&lt;font style=&quot;vertical-align: inherit;&quot;&gt;&lt;font style=&quot;vertical-align: inherit; font-size: 18px;&quot;&gt;Quản lý hồ sơ nhân viên&lt;/font&gt;&lt;/font&gt;" style="points=[[0.25,0,0],[0.5,0,0],[0.75,0,0],[1,0.25,0],[1,0.5,0],[1,0.75,0],[0.75,1,0],[0.5,1,0],[0.25,1,0],[0,0.75,0],[0,0.5,0],[0,0.25,0]];shape=mxgraph.bpmn.task;whiteSpace=wrap;rectStyle=rounded;size=10;html=1;container=1;expand=0;collapsible=0;taskMarker=service;fillColor=#C4DEFF;" vertex="1" parent="5HJImTVw7a-lIusNJ9sF-8">
          <mxGeometry x="990" y="180" width="110" height="60" as="geometry" />
        </mxCell>
        <mxCell id="5HJImTVw7a-lIusNJ9sF-55" value="&lt;font style=&quot;vertical-align: inherit;&quot;&gt;&lt;font style=&quot;vertical-align: inherit; font-size: 18px;&quot;&gt;Quản lý phân ca&lt;/font&gt;&lt;/font&gt;" style="points=[[0.25,0,0],[0.5,0,0],[0.75,0,0],[1,0.25,0],[1,0.5,0],[1,0.75,0],[0.75,1,0],[0.5,1,0],[0.25,1,0],[0,0.75,0],[0,0.5,0],[0,0.25,0]];shape=mxgraph.bpmn.task;whiteSpace=wrap;rectStyle=rounded;size=10;html=1;container=1;expand=0;collapsible=0;taskMarker=service;fillColor=#C4DEFF;" vertex="1" parent="5HJImTVw7a-lIusNJ9sF-8">
          <mxGeometry x="1465" y="180" width="100" height="60" as="geometry" />
        </mxCell>
        <mxCell id="9yNW38I7Dc4mzI84md_r-43" style="edgeStyle=orthogonalEdgeStyle;rounded=0;orthogonalLoop=1;jettySize=auto;html=1;exitX=0.5;exitY=1;exitDx=0;exitDy=0;exitPerimeter=0;" edge="1" parent="5HJImTVw7a-lIusNJ9sF-8" source="3dLg9AX5MmZRIqHySzpy-5" target="9yNW38I7Dc4mzI84md_r-33">
          <mxGeometry relative="1" as="geometry" />
        </mxCell>
        <mxCell id="3dLg9AX5MmZRIqHySzpy-5" value="&lt;font style=&quot;vertical-align: inherit;&quot;&gt;&lt;font style=&quot;vertical-align: inherit; font-size: 18px;&quot;&gt;Quản lý chấm công&lt;/font&gt;&lt;/font&gt;" style="points=[[0.25,0,0],[0.5,0,0],[0.75,0,0],[1,0.25,0],[1,0.5,0],[1,0.75,0],[0.75,1,0],[0.5,1,0],[0.25,1,0],[0,0.75,0],[0,0.5,0],[0,0.25,0]];shape=mxgraph.bpmn.task;whiteSpace=wrap;rectStyle=rounded;size=10;html=1;container=1;expand=0;collapsible=0;taskMarker=service;fillColor=#C4DEFF;" vertex="1" parent="5HJImTVw7a-lIusNJ9sF-8">
          <mxGeometry x="1980" y="175" width="110" height="65" as="geometry" />
        </mxCell>
        <mxCell id="INjII_VlsTG7CHtuzMsG-13" style="edgeStyle=orthogonalEdgeStyle;rounded=0;orthogonalLoop=1;jettySize=auto;html=1;entryX=0.5;entryY=0;entryDx=0;entryDy=0;entryPerimeter=0;" edge="1" parent="5HJImTVw7a-lIusNJ9sF-8" source="5HJImTVw7a-lIusNJ9sF-18" target="5HJImTVw7a-lIusNJ9sF-39">
          <mxGeometry relative="1" as="geometry">
            <Array as="points">
              <mxPoint x="385" y="40" />
              <mxPoint x="1515" y="40" />
            </Array>
          </mxGeometry>
        </mxCell>
        <mxCell id="INjII_VlsTG7CHtuzMsG-14" style="edgeStyle=orthogonalEdgeStyle;rounded=0;orthogonalLoop=1;jettySize=auto;html=1;entryX=0.5;entryY=0;entryDx=0;entryDy=0;entryPerimeter=0;" edge="1" parent="5HJImTVw7a-lIusNJ9sF-8" source="5HJImTVw7a-lIusNJ9sF-39" target="5HJImTVw7a-lIusNJ9sF-53">
          <mxGeometry relative="1" as="geometry" />
        </mxCell>
        <mxCell id="9yNW38I7Dc4mzI84md_r-4" value="" style="points=[[0.25,0.25,0],[0.5,0,0],[0.75,0.25,0],[1,0.5,0],[0.75,0.75,0],[0.5,1,0],[0.25,0.75,0],[0,0.5,0]];shape=mxgraph.bpmn.gateway2;html=1;verticalLabelPosition=bottom;labelBackgroundColor=#ffffff;verticalAlign=top;align=center;perimeter=rhombusPerimeter;outlineConnect=0;outline=end;symbol=general;fillColor=#fad9d5;strokeColor=#ae4132;" vertex="1" parent="5HJImTVw7a-lIusNJ9sF-8">
          <mxGeometry x="600" y="260" width="50" height="50" as="geometry" />
        </mxCell>
        <mxCell id="EQyYGxicYlngEizYewgm-7" style="edgeStyle=orthogonalEdgeStyle;rounded=0;orthogonalLoop=1;jettySize=auto;html=1;entryX=0;entryY=0.5;entryDx=0;entryDy=0;entryPerimeter=0;" edge="1" parent="5HJImTVw7a-lIusNJ9sF-8" source="5HJImTVw7a-lIusNJ9sF-11" target="5HJImTVw7a-lIusNJ9sF-15">
          <mxGeometry relative="1" as="geometry">
            <Array as="points">
              <mxPoint x="150" y="193" />
            </Array>
          </mxGeometry>
        </mxCell>
        <mxCell id="9yNW38I7Dc4mzI84md_r-9" style="edgeStyle=orthogonalEdgeStyle;rounded=0;orthogonalLoop=1;jettySize=auto;html=1;exitX=0.5;exitY=1;exitDx=0;exitDy=0;exitPerimeter=0;entryX=0.5;entryY=0;entryDx=0;entryDy=0;entryPerimeter=0;" edge="1" parent="5HJImTVw7a-lIusNJ9sF-8" source="5HJImTVw7a-lIusNJ9sF-53" target="9yNW38I7Dc4mzI84md_r-4">
          <mxGeometry relative="1" as="geometry" />
        </mxCell>
        <mxCell id="INjII_VlsTG7CHtuzMsG-26" style="edgeStyle=orthogonalEdgeStyle;rounded=0;orthogonalLoop=1;jettySize=auto;html=1;entryX=0.5;entryY=0;entryDx=0;entryDy=0;entryPerimeter=0;" edge="1" parent="5HJImTVw7a-lIusNJ9sF-8" source="5HJImTVw7a-lIusNJ9sF-39" target="5HJImTVw7a-lIusNJ9sF-54">
          <mxGeometry relative="1" as="geometry" />
        </mxCell>
        <mxCell id="INjII_VlsTG7CHtuzMsG-33" value="" style="points=[[0.25,0.25,0],[0.5,0,0],[0.75,0.25,0],[1,0.5,0],[0.75,0.75,0],[0.5,1,0],[0.25,0.75,0],[0,0.5,0]];shape=mxgraph.bpmn.gateway2;html=1;verticalLabelPosition=bottom;labelBackgroundColor=#ffffff;verticalAlign=top;align=center;perimeter=rhombusPerimeter;outlineConnect=0;outline=end;symbol=general;fillColor=#fad9d5;strokeColor=#ae4132;" vertex="1" parent="5HJImTVw7a-lIusNJ9sF-8">
          <mxGeometry x="1490" y="280" width="50" height="50" as="geometry" />
        </mxCell>
        <mxCell id="INjII_VlsTG7CHtuzMsG-37" value="&lt;font style=&quot;font-size: 18px;&quot;&gt;Hiển thị Danh sách nhân viên&amp;nbsp;&lt;/font&gt;" style="points=[[0.25,0,0],[0.5,0,0],[0.75,0,0],[1,0.25,0],[1,0.5,0],[1,0.75,0],[0.75,1,0],[0.5,1,0],[0.25,1,0],[0,0.75,0],[0,0.5,0],[0,0.25,0]];shape=mxgraph.bpmn.task;whiteSpace=wrap;rectStyle=rounded;size=10;html=1;container=1;expand=0;collapsible=0;taskMarker=service;fillColor=#C4DEFF;" vertex="1" parent="5HJImTVw7a-lIusNJ9sF-8">
          <mxGeometry x="1200" y="700" width="110" height="60" as="geometry" />
        </mxCell>
        <mxCell id="9yNW38I7Dc4mzI84md_r-16" value="" style="points=[[0.25,0.25,0],[0.5,0,0],[0.75,0.25,0],[1,0.5,0],[0.75,0.75,0],[0.5,1,0],[0.25,0.75,0],[0,0.5,0]];shape=mxgraph.bpmn.gateway2;html=1;verticalLabelPosition=bottom;labelBackgroundColor=#ffffff;verticalAlign=top;align=center;perimeter=rhombusPerimeter;outlineConnect=0;outline=end;symbol=general;fillColor=#fad9d5;strokeColor=#ae4132;" vertex="1" parent="5HJImTVw7a-lIusNJ9sF-8">
          <mxGeometry x="1020" y="260" width="50" height="50" as="geometry" />
        </mxCell>
        <mxCell id="RkXWmt04V3o-1gHCGNps-24" style="edgeStyle=orthogonalEdgeStyle;rounded=0;orthogonalLoop=1;jettySize=auto;html=1;entryX=0.5;entryY=0;entryDx=0;entryDy=0;entryPerimeter=0;" edge="1" parent="5HJImTVw7a-lIusNJ9sF-8" source="5HJImTVw7a-lIusNJ9sF-54">
          <mxGeometry relative="1" as="geometry">
            <mxPoint x="1045" y="260" as="targetPoint" />
          </mxGeometry>
        </mxCell>
        <mxCell id="RkXWmt04V3o-1gHCGNps-31" style="edgeStyle=orthogonalEdgeStyle;rounded=0;orthogonalLoop=1;jettySize=auto;html=1;entryX=0;entryY=0.5;entryDx=0;entryDy=0;entryPerimeter=0;" edge="1" parent="5HJImTVw7a-lIusNJ9sF-8" source="5HJImTVw7a-lIusNJ9sF-15" target="yn1PmDAww0J93RW6hKu--1">
          <mxGeometry relative="1" as="geometry">
            <Array as="points">
              <mxPoint x="250" y="246" />
            </Array>
          </mxGeometry>
        </mxCell>
        <mxCell id="QznY1XKzBCfQkfDNem1d-3" style="edgeStyle=orthogonalEdgeStyle;rounded=0;orthogonalLoop=1;jettySize=auto;html=1;entryX=0.5;entryY=0;entryDx=0;entryDy=0;entryPerimeter=0;" edge="1" parent="5HJImTVw7a-lIusNJ9sF-8" source="5HJImTVw7a-lIusNJ9sF-55" target="INjII_VlsTG7CHtuzMsG-33">
          <mxGeometry relative="1" as="geometry">
            <Array as="points">
              <mxPoint x="1515" y="250" />
              <mxPoint x="1515" y="250" />
            </Array>
          </mxGeometry>
        </mxCell>
        <mxCell id="nsVi4_g5yoVmGmrb79Rh-11" value="&lt;font style=&quot;font-size: 18px;&quot;&gt;Hiện thị Bảng phân ca&lt;/font&gt;" style="points=[[0.25,0,0],[0.5,0,0],[0.75,0,0],[1,0.25,0],[1,0.5,0],[1,0.75,0],[0.75,1,0],[0.5,1,0],[0.25,1,0],[0,0.75,0],[0,0.5,0],[0,0.25,0]];shape=mxgraph.bpmn.task;whiteSpace=wrap;rectStyle=rounded;size=10;html=1;container=1;expand=0;collapsible=0;taskMarker=service;fillColor=#C4DEFF;" vertex="1" parent="5HJImTVw7a-lIusNJ9sF-8">
          <mxGeometry x="1680" y="695" width="110" height="70" as="geometry" />
        </mxCell>
        <mxCell id="9yNW38I7Dc4mzI84md_r-33" value="&lt;font style=&quot;font-size: 18px;&quot;&gt;Hiển thị danh sách chấm công&lt;/font&gt;" style="points=[[0.25,0,0],[0.5,0,0],[0.75,0,0],[1,0.25,0],[1,0.5,0],[1,0.75,0],[0.75,1,0],[0.5,1,0],[0.25,1,0],[0,0.75,0],[0,0.5,0],[0,0.25,0]];shape=mxgraph.bpmn.task;whiteSpace=wrap;rectStyle=rounded;size=10;html=1;container=1;expand=0;collapsible=0;taskMarker=service;fillColor=#C4DEFF;" vertex="1" parent="5HJImTVw7a-lIusNJ9sF-8">
          <mxGeometry x="1980" y="290" width="110" height="65" as="geometry" />
        </mxCell>
        <mxCell id="nsVi4_g5yoVmGmrb79Rh-26" style="edgeStyle=orthogonalEdgeStyle;rounded=0;orthogonalLoop=1;jettySize=auto;html=1;entryX=0.5;entryY=0;entryDx=0;entryDy=0;entryPerimeter=0;" edge="1" parent="5HJImTVw7a-lIusNJ9sF-8" source="5HJImTVw7a-lIusNJ9sF-39" target="5HJImTVw7a-lIusNJ9sF-55">
          <mxGeometry relative="1" as="geometry" />
        </mxCell>
        <mxCell id="nsVi4_g5yoVmGmrb79Rh-30" style="edgeStyle=orthogonalEdgeStyle;rounded=0;orthogonalLoop=1;jettySize=auto;html=1;entryX=0.5;entryY=0;entryDx=0;entryDy=0;entryPerimeter=0;" edge="1" parent="5HJImTVw7a-lIusNJ9sF-8" source="5HJImTVw7a-lIusNJ9sF-39" target="3dLg9AX5MmZRIqHySzpy-5">
          <mxGeometry relative="1" as="geometry" />
        </mxCell>
        <mxCell id="9yNW38I7Dc4mzI84md_r-65" style="edgeStyle=orthogonalEdgeStyle;rounded=0;orthogonalLoop=1;jettySize=auto;html=1;exitX=1;exitY=0.5;exitDx=0;exitDy=0;exitPerimeter=0;entryX=0.5;entryY=0;entryDx=0;entryDy=0;entryPerimeter=0;" edge="1" parent="5HJImTVw7a-lIusNJ9sF-8" source="9yNW38I7Dc4mzI84md_r-40" target="9yNW38I7Dc4mzI84md_r-66">
          <mxGeometry relative="1" as="geometry">
            <mxPoint x="2480" y="700" as="targetPoint" />
            <Array as="points">
              <mxPoint x="2485" y="523" />
            </Array>
          </mxGeometry>
        </mxCell>
        <mxCell id="9yNW38I7Dc4mzI84md_r-40" value="&lt;font style=&quot;font-size: 18px;&quot;&gt;Xuất danh sách chấm công&lt;/font&gt;" style="points=[[0.25,0,0],[0.5,0,0],[0.75,0,0],[1,0.25,0],[1,0.5,0],[1,0.75,0],[0.75,1,0],[0.5,1,0],[0.25,1,0],[0,0.75,0],[0,0.5,0],[0,0.25,0]];shape=mxgraph.bpmn.task;whiteSpace=wrap;rectStyle=rounded;size=10;html=1;container=1;expand=0;collapsible=0;taskMarker=service;fillColor=#C4DEFF;" vertex="1" parent="5HJImTVw7a-lIusNJ9sF-8">
          <mxGeometry x="2080" y="490" width="110" height="65" as="geometry" />
        </mxCell>
        <mxCell id="nsVi4_g5yoVmGmrb79Rh-32" value="&lt;font style=&quot;font-size: 18px;&quot;&gt;Hiện thị bảng lương&amp;nbsp;&lt;/font&gt;" style="points=[[0.25,0,0],[0.5,0,0],[0.75,0,0],[1,0.25,0],[1,0.5,0],[1,0.75,0],[0.75,1,0],[0.5,1,0],[0.25,1,0],[0,0.75,0],[0,0.5,0],[0,0.25,0]];shape=mxgraph.bpmn.task;whiteSpace=wrap;rectStyle=rounded;size=10;html=1;container=1;expand=0;collapsible=0;taskMarker=service;fillColor=#C4DEFF;" vertex="1" parent="5HJImTVw7a-lIusNJ9sF-8">
          <mxGeometry x="2510" y="290" width="110" height="70" as="geometry" />
        </mxCell>
        <mxCell id="nsVi4_g5yoVmGmrb79Rh-33" style="edgeStyle=orthogonalEdgeStyle;rounded=0;orthogonalLoop=1;jettySize=auto;html=1;exitX=0.5;exitY=1;exitDx=0;exitDy=0;exitPerimeter=0;entryX=0.5;entryY=0;entryDx=0;entryDy=0;entryPerimeter=0;" edge="1" parent="5HJImTVw7a-lIusNJ9sF-8" source="3dLg9AX5MmZRIqHySzpy-15" target="nsVi4_g5yoVmGmrb79Rh-32">
          <mxGeometry relative="1" as="geometry" />
        </mxCell>
        <mxCell id="9yNW38I7Dc4mzI84md_r-45" style="edgeStyle=orthogonalEdgeStyle;rounded=0;orthogonalLoop=1;jettySize=auto;html=1;exitX=0.5;exitY=1;exitDx=0;exitDy=0;exitPerimeter=0;entryX=0.5;entryY=0;entryDx=0;entryDy=0;entryPerimeter=0;" edge="1" parent="5HJImTVw7a-lIusNJ9sF-8" source="9yNW38I7Dc4mzI84md_r-33" target="9yNW38I7Dc4mzI84md_r-44">
          <mxGeometry relative="1" as="geometry" />
        </mxCell>
        <mxCell id="9yNW38I7Dc4mzI84md_r-44" value="" style="points=[[0.25,0.25,0],[0.5,0,0],[0.75,0.25,0],[1,0.5,0],[0.75,0.75,0],[0.5,1,0],[0.25,0.75,0],[0,0.5,0]];shape=mxgraph.bpmn.gateway2;html=1;verticalLabelPosition=bottom;labelBackgroundColor=#ffffff;verticalAlign=top;align=center;perimeter=rhombusPerimeter;outlineConnect=0;outline=end;symbol=general;fillColor=#FAD9D5;strokeColor=#ae4132;" vertex="1" parent="5HJImTVw7a-lIusNJ9sF-8">
          <mxGeometry x="2010" y="395" width="50" height="50" as="geometry" />
        </mxCell>
        <mxCell id="9yNW38I7Dc4mzI84md_r-47" style="edgeStyle=orthogonalEdgeStyle;rounded=0;orthogonalLoop=1;jettySize=auto;html=1;exitX=1;exitY=0.5;exitDx=0;exitDy=0;exitPerimeter=0;entryX=0.5;entryY=0;entryDx=0;entryDy=0;entryPerimeter=0;" edge="1" parent="5HJImTVw7a-lIusNJ9sF-8" source="9yNW38I7Dc4mzI84md_r-44" target="9yNW38I7Dc4mzI84md_r-40">
          <mxGeometry relative="1" as="geometry" />
        </mxCell>
        <mxCell id="nsVi4_g5yoVmGmrb79Rh-35" style="edgeStyle=orthogonalEdgeStyle;rounded=0;orthogonalLoop=1;jettySize=auto;html=1;entryX=0.5;entryY=0;entryDx=0;entryDy=0;entryPerimeter=0;" edge="1" parent="5HJImTVw7a-lIusNJ9sF-8" source="5HJImTVw7a-lIusNJ9sF-39" target="3dLg9AX5MmZRIqHySzpy-15">
          <mxGeometry relative="1" as="geometry" />
        </mxCell>
        <mxCell id="9yNW38I7Dc4mzI84md_r-58" value="&lt;font style=&quot;font-size: 18px;&quot;&gt;Hiện thị Bảng chấm công&lt;/font&gt;" style="points=[[0.25,0,0],[0.5,0,0],[0.75,0,0],[1,0.25,0],[1,0.5,0],[1,0.75,0],[0.75,1,0],[0.5,1,0],[0.25,1,0],[0,0.75,0],[0,0.5,0],[0,0.25,0]];shape=mxgraph.bpmn.task;whiteSpace=wrap;rectStyle=rounded;size=10;html=1;container=1;expand=0;collapsible=0;taskMarker=service;fillColor=#C4DEFF;" vertex="1" parent="5HJImTVw7a-lIusNJ9sF-8">
          <mxGeometry x="2310" y="695" width="110" height="70" as="geometry" />
        </mxCell>
        <mxCell id="nsVi4_g5yoVmGmrb79Rh-40" style="edgeStyle=orthogonalEdgeStyle;rounded=0;orthogonalLoop=1;jettySize=auto;html=1;" edge="1" parent="5HJImTVw7a-lIusNJ9sF-8" source="nsVi4_g5yoVmGmrb79Rh-37">
          <mxGeometry relative="1" as="geometry">
            <mxPoint x="2700" y="470" as="targetPoint" />
          </mxGeometry>
        </mxCell>
        <mxCell id="nsVi4_g5yoVmGmrb79Rh-37" value="" style="points=[[0.25,0.25,0],[0.5,0,0],[0.75,0.25,0],[1,0.5,0],[0.75,0.75,0],[0.5,1,0],[0.25,0.75,0],[0,0.5,0]];shape=mxgraph.bpmn.gateway2;html=1;verticalLabelPosition=bottom;labelBackgroundColor=#ffffff;verticalAlign=top;align=center;perimeter=rhombusPerimeter;outlineConnect=0;outline=end;symbol=general;fillColor=#fad9d5;strokeColor=#ae4132;" vertex="1" parent="5HJImTVw7a-lIusNJ9sF-8">
          <mxGeometry x="2540" y="390" width="50" height="50" as="geometry" />
        </mxCell>
        <mxCell id="nsVi4_g5yoVmGmrb79Rh-38" style="edgeStyle=orthogonalEdgeStyle;rounded=0;orthogonalLoop=1;jettySize=auto;html=1;entryX=0.5;entryY=0;entryDx=0;entryDy=0;entryPerimeter=0;" edge="1" parent="5HJImTVw7a-lIusNJ9sF-8" source="nsVi4_g5yoVmGmrb79Rh-32" target="nsVi4_g5yoVmGmrb79Rh-37">
          <mxGeometry relative="1" as="geometry" />
        </mxCell>
        <mxCell id="nsVi4_g5yoVmGmrb79Rh-39" value="&lt;font style=&quot;font-size: 18px;&quot;&gt;Xuất bảng lương&amp;nbsp;&lt;/font&gt;" style="points=[[0.25,0,0],[0.5,0,0],[0.75,0,0],[1,0.25,0],[1,0.5,0],[1,0.75,0],[0.75,1,0],[0.5,1,0],[0.25,1,0],[0,0.75,0],[0,0.5,0],[0,0.25,0]];shape=mxgraph.bpmn.task;whiteSpace=wrap;rectStyle=rounded;size=10;html=1;container=1;expand=0;collapsible=0;taskMarker=service;fillColor=#C4DEFF;" vertex="1" parent="5HJImTVw7a-lIusNJ9sF-8">
          <mxGeometry x="2640" y="470" width="110" height="70" as="geometry" />
        </mxCell>
        <mxCell id="9yNW38I7Dc4mzI84md_r-66" value="" style="points=[[0.25,0.25,0],[0.5,0,0],[0.75,0.25,0],[1,0.5,0],[0.75,0.75,0],[0.5,1,0],[0.25,0.75,0],[0,0.5,0]];shape=mxgraph.bpmn.gateway2;html=1;verticalLabelPosition=bottom;labelBackgroundColor=#ffffff;verticalAlign=top;align=center;perimeter=rhombusPerimeter;outlineConnect=0;outline=end;symbol=general;fillColor=#fad9d5;strokeColor=#ae4132;" vertex="1" parent="5HJImTVw7a-lIusNJ9sF-8">
          <mxGeometry x="2460" y="705" width="50" height="50" as="geometry" />
        </mxCell>
        <mxCell id="9yNW38I7Dc4mzI84md_r-67" style="edgeStyle=orthogonalEdgeStyle;rounded=0;orthogonalLoop=1;jettySize=auto;html=1;exitX=1;exitY=0.5;exitDx=0;exitDy=0;exitPerimeter=0;entryX=0;entryY=0.5;entryDx=0;entryDy=0;entryPerimeter=0;" edge="1" parent="5HJImTVw7a-lIusNJ9sF-8" source="9yNW38I7Dc4mzI84md_r-58" target="9yNW38I7Dc4mzI84md_r-66">
          <mxGeometry relative="1" as="geometry" />
        </mxCell>
        <mxCell id="nsVi4_g5yoVmGmrb79Rh-46" value="&lt;font style=&quot;font-size: 18px;&quot;&gt;Tính toán lại&amp;nbsp;&lt;/font&gt;" style="points=[[0.25,0,0],[0.5,0,0],[0.75,0,0],[1,0.25,0],[1,0.5,0],[1,0.75,0],[0.75,1,0],[0.5,1,0],[0.25,1,0],[0,0.75,0],[0,0.5,0],[0,0.25,0]];shape=mxgraph.bpmn.task;whiteSpace=wrap;rectStyle=rounded;size=10;html=1;container=1;expand=0;collapsible=0;taskMarker=service;fillColor=#C4DEFF;" vertex="1" parent="5HJImTVw7a-lIusNJ9sF-8">
          <mxGeometry x="2800" y="710" width="110" height="70" as="geometry" />
        </mxCell>
        <mxCell id="nsVi4_g5yoVmGmrb79Rh-52" style="edgeStyle=orthogonalEdgeStyle;rounded=0;orthogonalLoop=1;jettySize=auto;html=1;" edge="1" parent="5HJImTVw7a-lIusNJ9sF-8" source="nsVi4_g5yoVmGmrb79Rh-44" target="nsVi4_g5yoVmGmrb79Rh-51">
          <mxGeometry relative="1" as="geometry">
            <Array as="points">
              <mxPoint x="2670" y="625" />
            </Array>
          </mxGeometry>
        </mxCell>
        <mxCell id="nsVi4_g5yoVmGmrb79Rh-53" value="Đúng&amp;nbsp;" style="edgeLabel;html=1;align=center;verticalAlign=middle;resizable=0;points=[];" vertex="1" connectable="0" parent="nsVi4_g5yoVmGmrb79Rh-52">
          <mxGeometry x="0.3154" y="5" relative="1" as="geometry">
            <mxPoint as="offset" />
          </mxGeometry>
        </mxCell>
        <mxCell id="nsVi4_g5yoVmGmrb79Rh-44" value="" style="points=[[0.25,0.25,0],[0.5,0,0],[0.75,0.25,0],[1,0.5,0],[0.75,0.75,0],[0.5,1,0],[0.25,0.75,0],[0,0.5,0]];shape=mxgraph.bpmn.gateway2;html=1;verticalLabelPosition=bottom;labelBackgroundColor=#ffffff;verticalAlign=top;align=center;perimeter=rhombusPerimeter;outlineConnect=0;outline=none;symbol=none;gwType=exclusive;fillColor=#CDA2BE;" vertex="1" parent="5HJImTVw7a-lIusNJ9sF-8">
          <mxGeometry x="2650" y="660" width="40" height="45" as="geometry" />
        </mxCell>
        <mxCell id="nsVi4_g5yoVmGmrb79Rh-50" style="edgeStyle=orthogonalEdgeStyle;rounded=0;orthogonalLoop=1;jettySize=auto;html=1;entryX=0;entryY=0.5;entryDx=0;entryDy=0;entryPerimeter=0;" edge="1" parent="5HJImTVw7a-lIusNJ9sF-8" source="nsVi4_g5yoVmGmrb79Rh-44" target="nsVi4_g5yoVmGmrb79Rh-46">
          <mxGeometry relative="1" as="geometry">
            <Array as="points">
              <mxPoint x="2670" y="745" />
            </Array>
          </mxGeometry>
        </mxCell>
        <mxCell id="nsVi4_g5yoVmGmrb79Rh-54" value="Sai&amp;nbsp;" style="edgeLabel;html=1;align=center;verticalAlign=middle;resizable=0;points=[];" vertex="1" connectable="0" parent="nsVi4_g5yoVmGmrb79Rh-50">
          <mxGeometry x="0.2458" y="1" relative="1" as="geometry">
            <mxPoint as="offset" />
          </mxGeometry>
        </mxCell>
        <mxCell id="nsVi4_g5yoVmGmrb79Rh-51" value="&lt;font style=&quot;font-size: 18px;&quot;&gt;Hiện thị Bảng lương&amp;nbsp;&lt;/font&gt;" style="points=[[0.25,0,0],[0.5,0,0],[0.75,0,0],[1,0.25,0],[1,0.5,0],[1,0.75,0],[0.75,1,0],[0.5,1,0],[0.25,1,0],[0,0.75,0],[0,0.5,0],[0,0.25,0]];shape=mxgraph.bpmn.task;whiteSpace=wrap;rectStyle=rounded;size=10;html=1;container=1;expand=0;collapsible=0;taskMarker=service;fillColor=#C4DEFF;" vertex="1" parent="5HJImTVw7a-lIusNJ9sF-8">
          <mxGeometry x="2960" y="590" width="110" height="70" as="geometry" />
        </mxCell>
        <mxCell id="nsVi4_g5yoVmGmrb79Rh-56" value="" style="points=[[0.25,0.25,0],[0.5,0,0],[0.75,0.25,0],[1,0.5,0],[0.75,0.75,0],[0.5,1,0],[0.25,0.75,0],[0,0.5,0]];shape=mxgraph.bpmn.gateway2;html=1;verticalLabelPosition=bottom;labelBackgroundColor=#ffffff;verticalAlign=top;align=center;perimeter=rhombusPerimeter;outlineConnect=0;outline=end;symbol=general;fillColor=#fad9d5;strokeColor=#ae4132;" vertex="1" parent="5HJImTVw7a-lIusNJ9sF-8">
          <mxGeometry x="3130" y="600" width="50" height="50" as="geometry" />
        </mxCell>
        <mxCell id="nsVi4_g5yoVmGmrb79Rh-57" style="edgeStyle=orthogonalEdgeStyle;rounded=0;orthogonalLoop=1;jettySize=auto;html=1;entryX=0.5;entryY=0;entryDx=0;entryDy=0;entryPerimeter=0;" edge="1" parent="5HJImTVw7a-lIusNJ9sF-8" source="nsVi4_g5yoVmGmrb79Rh-39" target="nsVi4_g5yoVmGmrb79Rh-56">
          <mxGeometry relative="1" as="geometry" />
        </mxCell>
        <mxCell id="nsVi4_g5yoVmGmrb79Rh-62" style="edgeStyle=orthogonalEdgeStyle;rounded=0;orthogonalLoop=1;jettySize=auto;html=1;entryX=0.5;entryY=1;entryDx=0;entryDy=0;entryPerimeter=0;" edge="1" parent="5HJImTVw7a-lIusNJ9sF-8" source="nsVi4_g5yoVmGmrb79Rh-46" target="nsVi4_g5yoVmGmrb79Rh-51">
          <mxGeometry relative="1" as="geometry" />
        </mxCell>
        <mxCell id="nsVi4_g5yoVmGmrb79Rh-63" style="edgeStyle=orthogonalEdgeStyle;rounded=0;orthogonalLoop=1;jettySize=auto;html=1;entryX=0;entryY=0.5;entryDx=0;entryDy=0;entryPerimeter=0;" edge="1" parent="5HJImTVw7a-lIusNJ9sF-8" source="nsVi4_g5yoVmGmrb79Rh-51" target="nsVi4_g5yoVmGmrb79Rh-56">
          <mxGeometry relative="1" as="geometry" />
        </mxCell>
        <mxCell id="9yNW38I7Dc4mzI84md_r-5" style="edgeStyle=orthogonalEdgeStyle;rounded=0;orthogonalLoop=1;jettySize=auto;html=1;exitX=0;exitY=0.5;exitDx=0;exitDy=0;exitPerimeter=0;" edge="1" parent="1" source="9yNW38I7Dc4mzI84md_r-4" target="9yNW38I7Dc4mzI84md_r-3">
          <mxGeometry relative="1" as="geometry" />
        </mxCell>
        <mxCell id="9yNW38I7Dc4mzI84md_r-7" style="edgeStyle=orthogonalEdgeStyle;rounded=0;orthogonalLoop=1;jettySize=auto;html=1;exitX=0.5;exitY=1;exitDx=0;exitDy=0;exitPerimeter=0;" edge="1" parent="1" source="9yNW38I7Dc4mzI84md_r-4" target="9yNW38I7Dc4mzI84md_r-1">
          <mxGeometry relative="1" as="geometry" />
        </mxCell>
        <mxCell id="9yNW38I7Dc4mzI84md_r-8" style="edgeStyle=orthogonalEdgeStyle;rounded=0;orthogonalLoop=1;jettySize=auto;html=1;exitX=1;exitY=0.5;exitDx=0;exitDy=0;exitPerimeter=0;entryX=0.5;entryY=0;entryDx=0;entryDy=0;entryPerimeter=0;fillColor=#F19C99;" edge="1" parent="1" source="9yNW38I7Dc4mzI84md_r-4" target="9yNW38I7Dc4mzI84md_r-2">
          <mxGeometry relative="1" as="geometry">
            <Array as="points">
              <mxPoint x="-225" y="-325" />
            </Array>
          </mxGeometry>
        </mxCell>
        <mxCell id="RkXWmt04V3o-1gHCGNps-27" style="edgeStyle=orthogonalEdgeStyle;rounded=0;orthogonalLoop=1;jettySize=auto;html=1;" edge="1" parent="1" target="9yNW38I7Dc4mzI84md_r-12">
          <mxGeometry relative="1" as="geometry" />
        </mxCell>
        <mxCell id="INjII_VlsTG7CHtuzMsG-45" style="edgeStyle=orthogonalEdgeStyle;rounded=0;orthogonalLoop=1;jettySize=auto;html=1;entryX=0.5;entryY=1;entryDx=0;entryDy=0;entryPerimeter=0;" edge="1" parent="1" source="9yNW38I7Dc4mzI84md_r-28" target="INjII_VlsTG7CHtuzMsG-37">
          <mxGeometry relative="1" as="geometry" />
        </mxCell>
        <mxCell id="RkXWmt04V3o-1gHCGNps-28" style="edgeStyle=orthogonalEdgeStyle;rounded=0;orthogonalLoop=1;jettySize=auto;html=1;entryX=0.5;entryY=0;entryDx=0;entryDy=0;entryPerimeter=0;" edge="1" parent="1" target="9yNW38I7Dc4mzI84md_r-11">
          <mxGeometry relative="1" as="geometry" />
        </mxCell>
        <mxCell id="QznY1XKzBCfQkfDNem1d-1" style="edgeStyle=orthogonalEdgeStyle;rounded=0;orthogonalLoop=1;jettySize=auto;html=1;entryX=0.5;entryY=0;entryDx=0;entryDy=0;entryPerimeter=0;" edge="1" parent="1" target="9yNW38I7Dc4mzI84md_r-2">
          <mxGeometry relative="1" as="geometry" />
        </mxCell>
        <mxCell id="nsVi4_g5yoVmGmrb79Rh-7" style="edgeStyle=orthogonalEdgeStyle;rounded=0;orthogonalLoop=1;jettySize=auto;html=1;entryX=0.5;entryY=0;entryDx=0;entryDy=0;entryPerimeter=0;" edge="1" parent="1" source="INjII_VlsTG7CHtuzMsG-33" target="9yNW38I7Dc4mzI84md_r-21">
          <mxGeometry relative="1" as="geometry" />
        </mxCell>
        <mxCell id="nsVi4_g5yoVmGmrb79Rh-8" style="edgeStyle=orthogonalEdgeStyle;rounded=0;orthogonalLoop=1;jettySize=auto;html=1;" edge="1" parent="1" source="INjII_VlsTG7CHtuzMsG-33" target="9yNW38I7Dc4mzI84md_r-22">
          <mxGeometry relative="1" as="geometry" />
        </mxCell>
        <mxCell id="9yNW38I7Dc4mzI84md_r-18" style="edgeStyle=orthogonalEdgeStyle;rounded=0;orthogonalLoop=1;jettySize=auto;html=1;exitX=0;exitY=0.5;exitDx=0;exitDy=0;exitPerimeter=0;entryX=0.5;entryY=0;entryDx=0;entryDy=0;entryPerimeter=0;" edge="1" parent="1" source="9yNW38I7Dc4mzI84md_r-16" target="9yNW38I7Dc4mzI84md_r-10">
          <mxGeometry relative="1" as="geometry" />
        </mxCell>
        <mxCell id="9yNW38I7Dc4mzI84md_r-32" style="edgeStyle=orthogonalEdgeStyle;rounded=0;orthogonalLoop=1;jettySize=auto;html=1;exitX=1;exitY=0.5;exitDx=0;exitDy=0;exitPerimeter=0;entryX=0.5;entryY=0;entryDx=0;entryDy=0;entryPerimeter=0;" edge="1" parent="1" source="9yNW38I7Dc4mzI84md_r-16" target="9yNW38I7Dc4mzI84md_r-12">
          <mxGeometry relative="1" as="geometry">
            <mxPoint x="190" y="220" as="targetPoint" />
          </mxGeometry>
        </mxCell>
        <mxCell id="nsVi4_g5yoVmGmrb79Rh-9" style="edgeStyle=orthogonalEdgeStyle;rounded=0;orthogonalLoop=1;jettySize=auto;html=1;entryX=0.5;entryY=0;entryDx=0;entryDy=0;entryPerimeter=0;" edge="1" parent="1" source="INjII_VlsTG7CHtuzMsG-33" target="9yNW38I7Dc4mzI84md_r-23">
          <mxGeometry relative="1" as="geometry" />
        </mxCell>
        <mxCell id="nsVi4_g5yoVmGmrb79Rh-22" style="edgeStyle=orthogonalEdgeStyle;rounded=0;orthogonalLoop=1;jettySize=auto;html=1;entryX=0.5;entryY=1;entryDx=0;entryDy=0;entryPerimeter=0;" edge="1" parent="1" source="nsVi4_g5yoVmGmrb79Rh-20" target="nsVi4_g5yoVmGmrb79Rh-11">
          <mxGeometry relative="1" as="geometry" />
        </mxCell>
        <mxCell id="nsVi4_g5yoVmGmrb79Rh-28" style="edgeStyle=orthogonalEdgeStyle;rounded=0;orthogonalLoop=1;jettySize=auto;html=1;entryX=0;entryY=0.5;entryDx=0;entryDy=0;entryPerimeter=0;" edge="1" parent="1" source="INjII_VlsTG7CHtuzMsG-37" target="RkXWmt04V3o-1gHCGNps-11">
          <mxGeometry relative="1" as="geometry">
            <Array as="points">
              <mxPoint x="390" y="120" />
              <mxPoint x="390" y="585" />
            </Array>
          </mxGeometry>
        </mxCell>
        <mxCell id="nsVi4_g5yoVmGmrb79Rh-29" style="edgeStyle=orthogonalEdgeStyle;rounded=0;orthogonalLoop=1;jettySize=auto;html=1;entryX=0;entryY=0.5;entryDx=0;entryDy=0;entryPerimeter=0;" edge="1" parent="1" source="nsVi4_g5yoVmGmrb79Rh-11" target="RkXWmt04V3o-1gHCGNps-11">
          <mxGeometry relative="1" as="geometry">
            <Array as="points">
              <mxPoint x="900" y="120" />
              <mxPoint x="900" y="585" />
            </Array>
          </mxGeometry>
        </mxCell>
        <mxCell id="9yNW38I7Dc4mzI84md_r-59" style="edgeStyle=orthogonalEdgeStyle;rounded=0;orthogonalLoop=1;jettySize=auto;html=1;exitX=0.5;exitY=0;exitDx=0;exitDy=0;exitPerimeter=0;entryX=0;entryY=0.5;entryDx=0;entryDy=0;entryPerimeter=0;" edge="1" parent="1" source="9yNW38I7Dc4mzI84md_r-52" target="9yNW38I7Dc4mzI84md_r-58">
          <mxGeometry relative="1" as="geometry" />
        </mxCell>
        <mxCell id="9yNW38I7Dc4mzI84md_r-61" value="Đúng&amp;nbsp;" style="edgeLabel;html=1;align=center;verticalAlign=middle;resizable=0;points=[];" connectable="0" vertex="1" parent="9yNW38I7Dc4mzI84md_r-59">
          <mxGeometry x="0.1427" y="1" relative="1" as="geometry">
            <mxPoint as="offset" />
          </mxGeometry>
        </mxCell>
        <mxCell id="9yNW38I7Dc4mzI84md_r-60" style="edgeStyle=orthogonalEdgeStyle;rounded=0;orthogonalLoop=1;jettySize=auto;html=1;exitX=0.5;exitY=0;exitDx=0;exitDy=0;exitPerimeter=0;" edge="1" parent="1" source="9yNW38I7Dc4mzI84md_r-56" target="9yNW38I7Dc4mzI84md_r-58">
          <mxGeometry relative="1" as="geometry" />
        </mxCell>
        <mxCell id="nsVi4_g5yoVmGmrb79Rh-43" style="edgeStyle=orthogonalEdgeStyle;rounded=0;orthogonalLoop=1;jettySize=auto;html=1;" edge="1" parent="1" source="nsVi4_g5yoVmGmrb79Rh-37" target="nsVi4_g5yoVmGmrb79Rh-41">
          <mxGeometry relative="1" as="geometry" />
        </mxCell>
        <mxCell id="9yNW38I7Dc4mzI84md_r-68" style="edgeStyle=orthogonalEdgeStyle;rounded=0;orthogonalLoop=1;jettySize=auto;html=1;exitX=0.5;exitY=1;exitDx=0;exitDy=0;exitPerimeter=0;entryX=0.5;entryY=0;entryDx=0;entryDy=0;entryPerimeter=0;" edge="1" parent="1" source="9yNW38I7Dc4mzI84md_r-66" target="RkXWmt04V3o-1gHCGNps-11">
          <mxGeometry relative="1" as="geometry">
            <mxPoint x="1480" y="450" as="targetPoint" />
          </mxGeometry>
        </mxCell>
        <mxCell id="nsVi4_g5yoVmGmrb79Rh-45" style="edgeStyle=orthogonalEdgeStyle;rounded=0;orthogonalLoop=1;jettySize=auto;html=1;entryX=0;entryY=0.5;entryDx=0;entryDy=0;entryPerimeter=0;" edge="1" parent="1" source="nsVi4_g5yoVmGmrb79Rh-41" target="nsVi4_g5yoVmGmrb79Rh-44">
          <mxGeometry relative="1" as="geometry" />
        </mxCell>
        <mxCell id="9yNW38I7Dc4mzI84md_r-77" style="edgeStyle=orthogonalEdgeStyle;rounded=0;orthogonalLoop=1;jettySize=auto;html=1;exitX=0.5;exitY=1;exitDx=0;exitDy=0;exitPerimeter=0;entryX=0.5;entryY=0;entryDx=0;entryDy=0;entryPerimeter=0;" edge="1" parent="1" source="9yNW38I7Dc4mzI84md_r-16" target="9yNW38I7Dc4mzI84md_r-11">
          <mxGeometry relative="1" as="geometry" />
        </mxCell>
        <mxCell id="nsVi4_g5yoVmGmrb79Rh-66" style="edgeStyle=orthogonalEdgeStyle;rounded=0;orthogonalLoop=1;jettySize=auto;html=1;entryX=1;entryY=0.5;entryDx=0;entryDy=0;entryPerimeter=0;" edge="1" parent="1" source="nsVi4_g5yoVmGmrb79Rh-56" target="RkXWmt04V3o-1gHCGNps-11">
          <mxGeometry relative="1" as="geometry">
            <Array as="points">
              <mxPoint x="2195" y="585" />
            </Array>
          </mxGeometry>
        </mxCell>
        <mxCell id="nsVi4_g5yoVmGmrb79Rh-67" style="edgeStyle=orthogonalEdgeStyle;rounded=0;orthogonalLoop=1;jettySize=auto;html=1;exitX=0.5;exitY=1;exitDx=0;exitDy=0;exitPerimeter=0;entryX=1;entryY=0.5;entryDx=0;entryDy=0;entryPerimeter=0;" edge="1" parent="1" source="yn1PmDAww0J93RW6hKu--1" target="5HJImTVw7a-lIusNJ9sF-9">
          <mxGeometry relative="1" as="geometry" />
        </mxCell>
        <mxCell id="nsVi4_g5yoVmGmrb79Rh-68" style="edgeStyle=orthogonalEdgeStyle;rounded=0;orthogonalLoop=1;jettySize=auto;html=1;entryX=0.5;entryY=1;entryDx=0;entryDy=0;entryPerimeter=0;" edge="1" parent="1" source="5HJImTVw7a-lIusNJ9sF-9" target="5HJImTVw7a-lIusNJ9sF-11">
          <mxGeometry relative="1" as="geometry" />
        </mxCell>
        <mxCell id="nsVi4_g5yoVmGmrb79Rh-69" style="edgeStyle=orthogonalEdgeStyle;rounded=0;orthogonalLoop=1;jettySize=auto;html=1;entryX=0;entryY=0.5;entryDx=0;entryDy=0;entryPerimeter=0;" edge="1" parent="1" source="9yNW38I7Dc4mzI84md_r-44" target="9yNW38I7Dc4mzI84md_r-37">
          <mxGeometry relative="1" as="geometry">
            <Array as="points">
              <mxPoint x="980" y="-190" />
              <mxPoint x="980" y="282" />
            </Array>
          </mxGeometry>
        </mxCell>
      </root>
    </mxGraphModel>
  </diagram>
</mxfile>
